<svg version="1" xmlns="http://www.w3.org/2000/svg" width="590.667" height="590.667" viewBox="0 0 443.000000 443.000000"><path d="M0 221.5V443h443V0H0v221.5zm433 0V433H10V10h423v211.5z"/><path d="M376.2 107.5c-16.2 4.5-44.4 23.3-66.1 44-16.6 15.9-57.6 64.4-87.1 103-19.4 25.4-56.3 69.5-58.1 69.5-.5 0-.9-.8-.9-1.9 0-2.6 6.4-21.6 11.7-34.5 8.8-21.6 11.1-27.2 15.8-38.1 2.6-6.1 5.5-13.3 6.5-16 1-2.8 3.3-8.8 5-13.5 3.9-10.8 8.1-23.6 8.6-26.9.3-1.4 1.2-4.9 2-7.6 2.1-6.8 3.3-23.9 2.4-32.2-2.8-25.6-26.9-39.9-61.4-36.3-12.6 1.3-16.8 2.3-28.5 6.5-35.9 12.8-64.9 40.1-78.3 73.5-9.8 24.4-8.7 52.2 2.6 69.3 4.8 7.3 9.2 10.9 18.6 15.5 6.7 3.2 8.5 3.7 17.2 4 8 .4 10.7.1 16.2-1.8 12.8-4.2 24.8-14.5 30.3-26 2-4.2 2.7-7.4 2.9-13.4.4-8.6-.6-11.6-3.6-11.6-1.8 0-2 .7-2 9.3 0 8.4-.3 10-3 15.3-8.4 16.9-25.7 25.2-44.2 21.3C69 276 57.3 263.2 54 247.5c-2.8-12.7-1.1-30.2 4-43.5 4.2-10.9 11.6-25.4 16.5-32.6 14.7-21.3 38.5-39 62-46 7.4-2.2 22.5-3 29.2-1.6 21.3 4.6 31.2 15.8 33.7 37.9.8 6.4-1.8 21.9-5.2 31.4-1.1 3-4.1 12.1-6.7 20.4-7.3 23.2-8.9 27.8-15.8 45s-13.4 33.4-17.2 43c-7.6 19.1-13.8 43.5-11.1 43.5 1 0 7.9-3.5 18.9-9.8 8.5-4.7 10.9-6.8 17.8-14.6 7.2-8.4 21.5-26.8 45.2-58.5 37.6-50.3 76-93.3 103.9-116.4 27.1-22.4 53.5-33 67.5-27.2 2.7 1.1 3.9 1.2 4.9.4 2.2-1.8 1.6-6.5-1-9.6-2.3-2.6-3-2.8-10.8-3-5-.2-10.4.3-13.6 1.2z"/></svg>