<svg version="1" xmlns="http://www.w3.org/2000/svg" width="666.667" height="666.667" viewBox="0 0 500.000000 500.000000"><path d="M288.5 224.9l-15.9 16 18 18.3c23.1 23.4 27.6 30.8 30.5 49.6 2 12.8-.7 26.2-7.8 39.2-2.8 5.1-9 12-28.7 31.8-13.7 13.8-25.5 25.2-26 25.2-.6 0-30.1-29-65.6-64.4-64.1-64-64.5-64.4-70.3-66.1-10.8-3.1-17.5-.3-30.2 12.5l-9 9.1L171 383l87.5 86.9 43.6-43.7c46.9-47 49-49.5 56.5-67.4 6.3-14.8 7.8-23.1 7.8-42.3 0-19.3-1-24.8-7.5-40.9-6.3-15.9-12.8-24.6-34.8-46.9l-19.6-19.8-16 16z"/></svg>