<?xml version="1.0" standalone="no"?>
<!DOCTYPE svg PUBLIC "-//W3C//DTD SVG 20010904//EN"
 "http://www.w3.org/TR/2001/REC-SVG-20010904/DTD/svg10.dtd">
<svg version="1.0" xmlns="http://www.w3.org/2000/svg"
 width="443.000000pt" height="443.000000pt" viewBox="0 0 443.000000 443.000000"
 preserveAspectRatio="xMidYMid meet">
<metadata>
Created by potrace 1.11, written by Peter Selinger 2001-2013
</metadata>
<g transform="translate(0.000000,443.000000) scale(0.100000,-0.100000)"
fill="#000000" stroke="none">
<path d="M0 2215 l0 -2215 2215 0 2215 0 0 2215 0 2215 -2215 0 -2215 0 0
-2215z m4330 0 l0 -2115 -2115 0 -2115 0 0 2115 0 2115 2115 0 2115 0 0 -2115z"/>
<path d="M3762 3355 c-162 -45 -444 -233 -661 -440 -166 -159 -576 -644 -871
-1030 -194 -254 -563 -695 -581 -695 -5 0 -9 8 -9 19 0 26 64 216 117 345 88
216 111 272 158 381 26 61 55 133 65 160 10 28 33 88 50 135 39 108 81 236 86
269 3 14 12 49 20 76 21 68 33 239 24 322 -28 256 -269 399 -614 363 -126 -13
-168 -23 -285 -65 -359 -128 -649 -401 -783 -735 -98 -244 -87 -522 26 -693
48 -73 92 -109 186 -155 67 -32 85 -37 172 -40 80 -4 107 -1 162 18 128 42
248 145 303 260 20 42 27 74 29 134 4 86 -6 116 -36 116 -18 0 -20 -7 -20 -93
0 -84 -3 -100 -30 -153 -84 -169 -257 -252 -442 -213 -138 29 -255 157 -288
314 -28 127 -11 302 40 435 42 109 116 254 165 326 147 213 385 390 620 460
74 22 225 30 292 16 213 -46 312 -158 337 -379 8 -64 -18 -219 -52 -314 -11
-30 -41 -121 -67 -204 -73 -232 -89 -278 -158 -450 -69 -172 -134 -334 -172
-430 -76 -191 -138 -435 -111 -435 10 0 79 35 189 98 85 47 109 68 178 146 72
84 215 268 452 585 376 503 760 933 1039 1164 271 224 535 330 675 272 27 -11
39 -12 49 -4 22 18 16 65 -10 96 -23 26 -30 28 -108 30 -50 2 -104 -3 -136
-12z"/>
</g>
</svg>
