<?xml version="1.0" standalone="no"?>
<!DOCTYPE svg PUBLIC "-//W3C//DTD SVG 20010904//EN"
 "http://www.w3.org/TR/2001/REC-SVG-20010904/DTD/svg10.dtd">
<svg version="1.0" xmlns="http://www.w3.org/2000/svg"
 width="500.000000pt" height="500.000000pt" viewBox="0 0 500.000000 500.000000"
 preserveAspectRatio="xMidYMid meet">
<metadata>
Created by potrace 1.11, written by Peter Selinger 2001-2013
</metadata>
<g transform="translate(0.000000,500.000000) scale(0.100000,-0.100000)"
fill="#000000" stroke="none">
<path d="M2885 2751 l-159 -160 180 -183 c231 -234 276 -308 305 -496 20 -128
-7 -262 -78 -392 -28 -51 -90 -120 -287 -318 -137 -138 -255 -252 -260 -252
-6 0 -301 290 -656 644 -641 640 -645 644 -703 661 -108 31 -175 3 -302 -125
l-90 -91 875 -869 875 -869 436 437 c469 470 490 495 565 674 63 148 78 231
78 423 0 193 -10 248 -75 409 -63 159 -128 246 -348 469 l-196 198 -160 -160z"/>
</g>
</svg>
